<?xml version="1.0" standalone="no"?>
<!DOCTYPE svg PUBLIC "-//W3C//DTD SVG 20010904//EN"
 "http://www.w3.org/TR/2001/REC-SVG-20010904/DTD/svg10.dtd">
<svg version="1.0" xmlns="http://www.w3.org/2000/svg"
 width="300.000000pt" height="300.000000pt" viewBox="0 0 300.000000 300.000000"
 preserveAspectRatio="xMidYMid meet">
<metadata>
Created by potrace 1.11, written by Peter Selinger 2001-2013
</metadata>
<g transform="translate(0.000000,300.000000) scale(0.100000,-0.100000)"
fill="#000000" stroke="none">
<path d="M1777 2590 c-131 -87 -242 -161 -245 -165 -8 -8 -9 -2053 -1 -2066 5
-9 493 -14 507 -5 4 2 7 488 7 1080 -1 599 3 1076 8 1076 4 0 46 -22 93 -50
46 -27 115 -66 152 -87 37 -20 69 -40 72 -44 3 -4 5 -451 5 -993 l0 -986 141
0 141 0 -1 746 c-1 410 2 748 5 749 3 2 35 -26 72 -63 l66 -67 0 -625 c0 -344
0 -651 1 -682 l0 -58 45 0 45 0 0 724 0 724 -121 76 c-66 42 -124 76 -128 76
-5 0 -31 -18 -59 -40 -27 -22 -54 -40 -59 -40 -4 0 -8 122 -8 271 0 169 -4
276 -10 284 -9 12 -483 326 -488 324 -1 0 -109 -72 -240 -159z"/>
<path d="M760 2582 l-225 -148 0 -282 c-1 -154 -4 -284 -7 -287 -4 -4 -38 12
-77 35 l-71 41 -133 -89 -132 -89 -3 -755 -2 -756 1390 1 1390 0 0 23 0 24
-705 0 c-557 0 -705 3 -706 13 0 6 -1 484 -2 1062 l-2 1050 -235 152 c-129 84
-239 152 -245 152 -5 0 -111 -66 -235 -147z m465 -208 c83 -49 152 -92 155
-95 4 -6 5 -1914 1 -1966 -1 -18 -371 -18 -372 0 -3 39 -13 2170 -10 2190 1 4
18 -3 39 -17 20 -13 105 -63 187 -112z m-717 -641 c7 -7 16 -13 20 -13 5 0 8
-1304 3 -1402 -1 -15 -11 -18 -71 -18 l-70 0 0 38 c-1 45 -1 1463 0 1475 0 8
89 -53 118 -80z"/>
</g>
</svg>
